<svg width="172" height="171" viewBox="0 0 172 171" fill="none" xmlns="http://www.w3.org/2000/svg">
<path fill-rule="evenodd" clip-rule="evenodd" d="M26.9569 110.959C26.9569 110.959 26.9567 110.959 27.1206 111.085C27.1892 111.282 27.1893 111.282 27.1893 111.282L27.2003 111.278L27.2341 111.265L27.3671 111.216C27.484 111.172 27.6564 111.109 27.8778 111.028C28.3207 110.867 28.9599 110.639 29.744 110.37C31.3126 109.833 33.4603 109.133 35.7782 108.485C38.0969 107.836 40.5814 107.24 42.8247 106.908C45.0762 106.574 47.054 106.512 48.3768 106.907L48.5081 106.502C47.0928 106.08 45.0365 106.156 42.7767 106.49C40.5088 106.826 38.0052 107.427 35.6779 108.078C33.3498 108.73 31.1939 109.432 29.6202 109.971C28.8332 110.241 28.1916 110.47 27.7466 110.632C27.7364 110.636 27.7263 110.639 27.7163 110.643C27.7975 110.535 27.889 110.412 27.9898 110.276C28.4313 109.681 29.0513 108.83 29.7661 107.805C31.1951 105.755 33.0054 103.008 34.5249 100.222C36.0408 97.4436 37.282 94.6007 37.5495 92.3674C37.6834 91.2492 37.577 90.2554 37.1096 89.4983C36.637 88.7327 35.8179 88.245 34.6081 88.096L34.5439 88.5148C35.6631 88.6527 36.3578 89.0919 36.7511 89.729C37.1496 90.3746 37.2612 91.259 37.1329 92.3302C36.8759 94.4757 35.671 97.256 34.1585 100.029C32.6498 102.795 30.8495 105.527 29.4251 107.57C28.7131 108.591 28.0957 109.439 27.6563 110.031C27.4367 110.327 27.2616 110.559 27.1415 110.717C27.0814 110.797 27.0352 110.857 27.0039 110.898L26.9685 110.944L26.9569 110.959ZM27.1206 111.085L27.1893 111.282L26.5045 111.542L26.9569 110.959L27.1206 111.085Z" fill="white"/>
<path fill-rule="evenodd" clip-rule="evenodd" d="M88.1919 67.4227C68.833 74.7369 50.7467 86.2283 38.5959 100.639L38.9123 100.906C51.0026 86.5668 69.0192 75.1125 88.3283 67.8171C107.637 60.5217 128.218 57.3931 145.428 59.6851L145.496 59.2668C128.203 56.9637 107.551 60.1085 88.1919 67.4227Z" fill="white"/>
</svg>
