<svg width="1005" height="422" viewBox="0 0 1005 422" fill="none" xmlns="http://www.w3.org/2000/svg">
<ellipse cx="515.618" cy="233.116" rx="309.143" ry="188.55" fill="url(#paint0_radial_107_123)"/>
<ellipse cx="501.93" cy="174.837" rx="102.667" ry="102.846" fill="url(#paint1_linear_107_123)"/>
<path d="M1004.5 235.973C1004.5 256.956 990.595 277.042 965.218 295.394C939.852 313.737 903.116 330.276 857.675 344.175C766.8 371.97 641.226 389.17 502.5 389.17C363.774 389.17 238.2 371.97 147.325 344.175C101.884 330.276 65.1475 313.737 39.7819 295.394C14.4049 277.042 0.5 256.956 0.5 235.973C0.5 214.99 14.4049 194.904 39.7819 176.552C65.1475 158.209 101.884 141.67 147.325 127.771C238.2 99.9754 363.774 82.776 502.5 82.776C641.226 82.776 766.8 99.9754 857.675 127.771C903.116 141.67 939.852 158.209 965.218 176.552C990.595 194.904 1004.5 214.99 1004.5 235.973Z" stroke="url(#paint2_linear_107_123)"/>
<path d="M942.9 235.973C942.9 256.987 930.826 277.076 908.835 295.415C886.846 313.751 854.999 330.286 815.6 344.182C736.808 371.972 627.926 389.17 507.633 389.17C387.341 389.17 278.458 371.972 199.666 344.182C160.268 330.286 128.421 313.751 106.432 295.415C84.4408 277.076 72.3672 256.987 72.3672 235.973C72.3672 214.959 84.4408 194.869 106.432 176.531C128.421 158.195 160.268 141.66 199.666 127.764C278.458 99.974 387.341 82.776 507.633 82.776C627.926 82.776 736.808 99.974 815.6 127.764C854.999 141.66 886.846 158.195 908.835 176.531C930.826 194.869 942.9 214.959 942.9 235.973Z" stroke="url(#paint3_linear_107_123)"/>
<path d="M915.522 235.973C915.522 257.006 904.529 277.099 884.532 295.43C864.534 313.762 835.569 330.293 799.735 344.187C728.07 371.973 629.031 389.17 519.611 389.17C410.191 389.17 311.153 371.973 239.488 344.187C203.653 330.293 174.688 313.762 154.691 295.43C134.693 277.099 123.701 257.006 123.701 235.973C123.701 214.94 134.693 194.847 154.691 176.516C174.688 158.184 203.653 141.653 239.488 127.759C311.153 99.9728 410.191 82.776 519.611 82.776C629.031 82.776 728.07 99.9728 799.735 127.759C835.569 141.653 864.534 158.184 884.532 176.516C904.529 194.847 915.522 214.94 915.522 235.973Z" stroke="url(#paint4_linear_107_123)"/>
<path d="M681.668 157.125C681.668 243.579 603.801 313.75 507.634 313.75C411.466 313.75 333.599 243.579 333.599 157.125C333.599 70.6716 411.466 0.5 507.634 0.5C603.801 0.5 681.668 70.6716 681.668 157.125Z" stroke="url(#paint5_linear_107_123)"/>
<path d="M674.824 197.692C674.824 223.304 656.177 246.596 625.798 263.514C595.437 280.422 553.458 290.896 507.063 290.896C460.668 290.896 418.69 280.422 388.328 263.514C357.95 246.596 339.303 223.304 339.303 197.692C339.303 172.08 357.95 148.788 388.328 131.87C418.69 114.962 460.668 104.488 507.063 104.488C553.458 104.488 595.437 114.962 625.798 131.87C656.177 148.788 674.824 172.08 674.824 197.692Z" stroke="url(#paint6_linear_107_123)"/>
<path d="M991.706 208.956C991.706 203.871 986.255 199.051 977.897 196.064C979.827 186.114 978.97 178.195 975.192 175.659C974.277 175.06 973.241 174.758 972.192 174.786V178.272C972.808 178.272 973.303 178.416 973.719 178.681C975.54 179.903 976.331 184.547 975.715 190.524C975.567 191.996 975.326 193.544 975.031 195.124C972.232 194.336 969.391 193.766 966.527 193.419C964.821 190.669 962.96 188.056 960.956 185.596C965.323 180.856 969.421 178.259 972.208 178.259V174.77C968.523 174.77 963.702 177.837 958.826 183.156C953.953 177.872 949.129 174.834 945.446 174.834V178.32C948.22 178.32 952.332 180.904 956.699 185.612C954.823 187.915 952.948 190.524 951.166 193.419C948.296 193.762 945.45 194.337 942.648 195.14C942.352 193.642 942.119 192.129 941.95 190.604C941.321 184.624 942.098 179.98 943.908 178.745C944.307 178.464 944.83 178.336 945.446 178.336V174.85C944.324 174.85 943.303 175.131 942.421 175.723C938.657 178.259 937.813 186.159 939.755 196.08C931.424 199.086 926 203.887 926 208.956C926 214.041 931.451 218.861 939.809 221.845C937.879 231.798 938.736 239.717 942.514 242.25C943.385 242.845 944.403 243.126 945.526 243.126C949.211 243.126 954.032 240.059 958.908 234.741C963.781 240.027 968.602 243.062 972.287 243.062C973.344 243.088 974.388 242.786 975.313 242.186C979.077 239.653 979.92 231.753 977.979 221.832C986.283 218.845 991.706 214.025 991.706 208.956ZM974.267 198.52C973.747 200.611 973.144 202.673 972.46 204.699C971.341 202.156 970.112 199.68 968.778 197.282C970.68 197.612 972.515 198.018 974.27 198.52H974.267ZM968.134 215.183C967.131 217.228 966.055 219.223 964.906 221.161C960.888 221.574 956.847 221.58 952.827 221.177C950.522 217.33 948.506 213.257 946.802 209.004C948.503 204.741 950.511 200.654 952.803 196.787C956.82 196.372 960.861 196.366 964.879 196.767C965.991 198.629 967.077 200.618 968.121 202.716C969.139 204.763 970.064 206.842 970.908 208.94C970.055 211.064 969.13 213.146 968.134 215.183V215.183ZM972.46 213.149C973.183 215.244 973.801 217.342 974.308 219.376C972.556 219.878 970.705 220.3 968.791 220.627C970.12 218.207 971.344 215.711 972.46 213.149V213.149ZM958.881 229.844C957.635 228.341 956.389 226.668 955.157 224.835C956.362 224.899 957.594 224.947 958.84 224.947C960.099 224.947 961.345 224.915 962.563 224.835C961.358 226.668 960.113 228.341 958.881 229.844ZM948.915 220.627C947.069 220.314 945.237 219.902 943.423 219.392C943.919 217.374 944.535 215.292 945.23 213.213C945.78 214.46 946.358 215.714 946.988 216.968C947.617 218.218 948.258 219.44 948.915 220.627ZM958.812 188.068C960.058 189.571 961.303 191.244 962.535 193.077C961.331 193.013 960.099 192.965 958.853 192.965C957.594 192.965 956.348 192.997 955.13 193.077C956.334 191.244 957.58 189.571 958.812 188.068ZM948.901 197.286C947.573 199.7 946.349 202.19 945.233 204.747C944.53 202.708 943.913 200.63 943.385 198.52C945.137 198.034 946.988 197.612 948.901 197.286ZM936.781 216.872C932.04 214.511 928.973 211.412 928.973 208.956C928.973 206.5 932.04 203.385 936.781 201.04C937.931 200.461 939.191 199.943 940.491 199.46C941.255 202.524 942.26 205.716 943.503 208.988C942.329 212.065 941.337 215.233 940.532 218.468C939.26 218.008 938.008 217.475 936.781 216.872V216.872ZM943.987 239.228C942.167 238.012 941.375 233.362 941.991 227.388C942.139 225.916 942.38 224.365 942.676 222.785C945.299 223.537 948.165 224.116 951.179 224.493C952.885 227.243 954.747 229.856 956.751 232.316C952.384 237.056 948.285 239.653 945.498 239.653C944.973 239.66 944.453 239.515 943.987 239.231V239.228ZM975.756 227.308C976.386 233.285 975.608 237.932 973.799 239.167C973.399 239.448 972.876 239.573 972.26 239.573C969.487 239.573 965.375 236.992 961.008 232.281C963.003 229.831 964.852 227.224 966.541 224.477C969.41 224.134 972.256 223.559 975.058 222.757C975.367 224.337 975.606 225.853 975.756 227.308V227.308ZM980.911 216.872C979.762 217.451 978.502 217.969 977.202 218.452C976.383 215.2 975.377 212.017 974.19 208.924C975.422 205.671 976.41 202.496 977.161 199.444C978.437 199.906 979.693 200.439 980.925 201.04C985.667 203.401 988.733 206.5 988.733 208.956C988.719 211.412 985.653 214.527 980.911 216.872V216.872Z" fill="url(#paint7_linear_107_123)"/>
<path d="M958.841 216.105C960.465 216.105 962.022 215.352 963.17 214.011C964.318 212.67 964.963 210.851 964.963 208.954C964.963 207.057 964.318 205.238 963.17 203.897C962.022 202.556 960.465 201.803 958.841 201.803C957.218 201.803 955.661 202.556 954.513 203.897C953.365 205.238 952.72 207.057 952.72 208.954C952.72 210.851 953.365 212.67 954.513 214.011C955.661 215.352 957.218 216.105 958.841 216.105V216.105Z" fill="url(#paint8_linear_107_123)"/>
<path d="M133.879 155.776H95.9752C93.1217 155.776 90.8065 158.227 90.8065 161.249V201.382C90.8065 204.403 93.1217 206.855 95.9752 206.855H133.879C136.732 206.855 139.047 204.403 139.047 201.382V161.249C139.047 158.227 136.732 155.776 133.879 155.776ZM117.059 195.613C117.059 200.584 114.302 202.853 110.286 202.853C106.657 202.853 104.557 200.869 103.481 198.463L107.174 196.103C107.885 197.437 108.531 198.566 110.092 198.566C111.578 198.566 112.526 197.95 112.526 195.544V179.229H117.059V195.613ZM127.784 202.853C123.574 202.853 120.849 200.732 119.525 197.95L123.218 195.693C124.188 197.369 125.458 198.611 127.687 198.611C129.561 198.611 130.767 197.62 130.767 196.24C130.767 194.598 129.539 194.017 127.461 193.048L126.33 192.535C123.057 191.064 120.892 189.205 120.892 185.295C120.892 181.692 123.488 178.955 127.526 178.955C130.411 178.955 132.479 180.016 133.965 182.798L130.433 185.192C129.658 183.721 128.818 183.14 127.515 183.14C126.19 183.14 125.35 184.029 125.35 185.192C125.35 186.629 126.19 187.21 128.139 188.111L129.27 188.624C133.125 190.368 135.289 192.158 135.289 196.172C135.289 200.481 132.081 202.853 127.784 202.853Z" fill="url(#paint9_linear_107_123)"/>
<path d="M917.983 372.77C916.843 372.77 915.687 372.488 914.683 371.955L904.188 366.233C902.623 365.418 903.389 365.135 903.899 364.979C905.991 364.305 906.416 364.164 908.645 362.988C908.883 362.862 909.189 362.909 909.427 363.051L917.49 367.456C917.779 367.612 918.187 367.612 918.459 367.456L949.876 350.745C950.166 350.588 950.353 350.274 950.353 349.961V316.539C950.353 316.21 950.166 315.912 949.859 315.74L918.459 299.045C918.17 298.888 917.779 298.888 917.49 299.045L886.107 315.756C885.8 315.912 885.613 316.226 885.613 316.555V349.961C885.613 350.274 885.8 350.588 886.107 350.729L894.714 355.307C899.391 357.454 902.249 354.93 902.249 352.375V319.392C902.249 318.922 902.657 318.562 903.167 318.562H907.148C907.641 318.562 908.066 318.922 908.066 319.392V352.391C908.066 358.128 904.664 361.42 898.762 361.42C896.942 361.42 895.513 361.42 891.533 359.602L883.3 355.228C881.259 354.147 880 352.124 880 349.945V316.539C880 314.376 881.259 312.338 883.3 311.257L914.683 294.546C916.673 293.511 919.31 293.511 921.283 294.546L952.7 311.272C954.741 312.354 956 314.376 956 316.555V349.961C956 352.124 954.741 354.147 952.7 355.244L921.283 371.955C920.279 372.488 919.14 372.77 917.983 372.77ZM943.345 339.834C943.345 333.579 938.752 331.918 929.107 330.742C919.344 329.551 918.357 328.939 918.357 326.839C918.357 325.099 919.191 322.779 926.42 322.779C932.867 322.779 935.248 324.064 936.235 328.077C936.32 328.453 936.694 328.735 937.119 328.735H941.201C941.457 328.735 941.695 328.641 941.865 328.469C942.035 328.297 942.12 328.061 942.103 327.826C941.474 320.913 936.49 317.699 926.42 317.699C917.456 317.699 912.115 321.18 912.115 327.027C912.115 333.36 917.439 335.116 926.029 335.899C936.32 336.824 937.119 338.22 937.119 340.085C937.119 343.314 934.295 344.694 927.679 344.694C919.361 344.694 917.541 342.766 916.928 338.956C916.86 338.549 916.486 338.251 916.027 338.251H911.962C911.451 338.251 911.06 338.627 911.06 339.082C911.06 343.957 913.935 349.773 927.696 349.773C937.629 349.757 943.345 346.136 943.345 339.834V339.834Z" fill="url(#paint10_linear_107_123)"/>
<path fill-rule="evenodd" clip-rule="evenodd" d="M695.329 324.77C687.942 324.77 682 332.01 682 340.88C682 346.272 684.198 351.062 687.576 353.985C685.835 355.509 684.424 357.489 683.456 359.764C682.487 362.04 681.989 364.549 682 367.091C682 372.487 684.198 377.273 687.576 380.196C685.835 381.72 684.424 383.699 683.456 385.975C682.487 388.251 681.989 390.76 682 393.302C682 402.172 687.942 409.412 695.329 409.412C702.713 409.412 708.658 402.172 708.658 393.302V379.681C710.992 381.955 713.935 383.202 716.975 383.205C724.362 383.201 730.304 375.961 730.304 367.091C730.316 364.549 729.818 362.04 728.849 359.764C727.881 357.488 726.469 355.509 724.728 353.985C726.469 352.462 727.88 350.482 728.848 348.207C729.817 345.931 730.315 343.421 730.304 340.88C730.304 332.01 724.362 324.77 716.975 324.77H695.329V324.77ZM687.009 340.88C687.009 335.269 690.758 330.776 695.329 330.776H703.646V350.984H695.329C690.758 350.984 687.009 346.488 687.009 340.88V340.88ZM716.975 350.981H708.658V330.772H716.975C721.549 330.772 725.295 335.269 725.295 340.88C725.295 346.488 721.549 350.981 716.975 350.981ZM687.012 367.091C687.012 361.483 690.761 356.987 695.332 356.987H703.649V377.195H695.329C690.755 377.195 687.009 372.698 687.009 367.091H687.012ZM708.658 367.091C708.658 361.483 712.407 356.987 716.978 356.987C721.552 356.987 725.298 361.48 725.298 367.091C725.298 372.698 721.552 377.195 716.978 377.195C712.407 377.195 708.661 372.702 708.661 367.091H708.658ZM687.012 393.302C687.012 387.694 690.761 383.201 695.332 383.201H703.649V393.302C703.649 398.913 699.906 403.406 695.332 403.406C690.761 403.406 687.012 398.913 687.012 393.302Z" fill="url(#paint11_linear_107_123)"/>
<path d="M842.764 146.463C846.494 143.96 850.214 141.437 853.957 138.96C857.51 136.609 861.689 138.777 862.495 143.353C862.961 146 861.949 148.86 859.904 150.253C853.197 154.818 846.48 159.366 839.73 163.844C837.641 165.23 835.488 164.975 833.585 163.277C831.65 161.553 831.041 159.174 831.494 156.406C832.012 154.298 833.198 152.889 834.814 151.835C837.487 150.093 840.116 148.258 842.764 146.463" fill="url(#paint12_linear_107_123)"/>
<path d="M845.502 144.645C841.782 142.123 838.052 139.621 834.344 137.073C830.824 134.654 830.342 129.341 833.332 126.238C835.061 124.444 837.686 124.037 839.742 125.41C846.48 129.913 853.21 134.434 859.905 139.024C861.977 140.445 862.864 142.75 862.557 145.525C862.246 148.344 860.787 150.15 858.508 151.075C856.687 151.605 855.05 151.11 853.46 150.002C850.832 148.169 848.157 146.426 845.502 144.645" fill="url(#paint13_linear_107_123)"/>
<path d="M811.59 142.861C809.202 144.445 806.814 146.027 804.428 147.616C803.033 148.546 801.653 149.508 800.251 150.422C797.426 152.264 794.069 151.185 792.466 147.939C790.937 144.843 791.816 140.828 794.537 138.972C801.191 134.435 807.862 129.931 814.556 125.478C816.61 124.112 818.74 124.284 820.638 125.917C822.642 127.64 823.298 130.065 822.848 132.908C822.569 133.596 822.403 134.403 821.984 134.945C821.305 135.826 820.532 136.67 819.672 137.29C817.01 139.208 814.288 141.012 811.59 142.861" fill="url(#paint14_linear_107_123)"/>
<path d="M808.852 144.636C811.22 146.259 813.587 147.885 815.958 149.503C817.345 150.45 818.748 151.365 820.127 152.326C822.905 154.264 823.784 158.2 822.179 161.443C820.647 164.539 817.232 165.658 814.495 163.832C807.805 159.369 801.131 154.873 794.482 150.326C792.443 148.932 791.506 146.691 791.767 143.953C792.042 141.064 793.512 139.188 795.845 138.222C796.494 138.16 797.175 137.926 797.786 138.078C798.78 138.325 799.792 138.684 800.681 139.245C803.434 140.979 806.132 142.83 808.852 144.636" fill="url(#paint15_linear_107_123)"/>
<path d="M51.1393 277.77H58.8694V281.352H54.3717V284.935H58.8694V288.518H51.1393V277.77ZM60.4137 277.77H68.1468V280.887H63.6491V281.509H68.1468V288.674H60.4137V285.404H64.9114V284.779H60.4137V277.77ZM69.694 277.77H77.4212V280.887H72.9234V281.509H77.4212V288.674H69.694V285.404H74.1918V284.779H69.694V277.77Z" fill="url(#paint16_linear_107_123)"/>
<path fill-rule="evenodd" clip-rule="evenodd" d="M64.5682 355.458L44.0488 349.257L38 293.442H91.1896L85.1437 349.251L64.5682 355.458ZM49.9588 318.707L50.5232 325.551H72.3221L71.5922 334.428L64.5771 336.492H64.5712L57.5679 334.434L57.1187 328.976H50.8039L51.6845 339.725L64.5682 343.616L77.4726 339.725L79.0446 320.544L79.1983 318.707L80.333 304.849H48.827L49.4003 311.696H73.442L72.8687 318.707H49.9588V318.707Z" fill="url(#paint17_linear_107_123)"/>
<defs>
<radialGradient id="paint0_radial_107_123" cx="0" cy="0" r="1" gradientUnits="userSpaceOnUse" gradientTransform="translate(515.618 233.116) rotate(90) scale(188.55 309.143)">
<stop stop-color="#5300A1"/>
<stop offset="1" stop-color="#320F85" stop-opacity="0"/>
</radialGradient>
<linearGradient id="paint1_linear_107_123" x1="501.93" y1="71.9918" x2="501.93" y2="277.683" gradientUnits="userSpaceOnUse">
<stop stop-color="#3700C2"/>
<stop offset="1" stop-color="#7840AD" stop-opacity="0.36"/>
</linearGradient>
<linearGradient id="paint2_linear_107_123" x1="502.5" y1="82.276" x2="502.5" y2="389.67" gradientUnits="userSpaceOnUse">
<stop stop-opacity="0"/>
<stop offset="0.479167" stop-color="#763CAC"/>
</linearGradient>
<linearGradient id="paint3_linear_107_123" x1="507.633" y1="82.276" x2="507.633" y2="389.67" gradientUnits="userSpaceOnUse">
<stop stop-opacity="0"/>
<stop offset="0.479167" stop-color="#763CAC"/>
</linearGradient>
<linearGradient id="paint4_linear_107_123" x1="519.611" y1="82.276" x2="519.611" y2="389.67" gradientUnits="userSpaceOnUse">
<stop stop-opacity="0"/>
<stop offset="0.479167" stop-color="#763CAC"/>
</linearGradient>
<linearGradient id="paint5_linear_107_123" x1="507.634" y1="0" x2="507.634" y2="314.25" gradientUnits="userSpaceOnUse">
<stop offset="0.197917" stop-opacity="0"/>
<stop offset="1" stop-color="#763CAC"/>
</linearGradient>
<linearGradient id="paint6_linear_107_123" x1="507.063" y1="103.988" x2="507.063" y2="291.396" gradientUnits="userSpaceOnUse">
<stop offset="0.197917" stop-opacity="0"/>
<stop offset="1" stop-color="#763CAC"/>
</linearGradient>
<linearGradient id="paint7_linear_107_123" x1="958.853" y1="174.77" x2="958.853" y2="243.126" gradientUnits="userSpaceOnUse">
<stop stop-color="#2C1250"/>
<stop offset="1" stop-color="#693B93"/>
</linearGradient>
<linearGradient id="paint8_linear_107_123" x1="958.841" y1="201.803" x2="958.841" y2="216.105" gradientUnits="userSpaceOnUse">
<stop stop-color="#2C1250"/>
<stop offset="1" stop-color="#693B93"/>
</linearGradient>
<linearGradient id="paint9_linear_107_123" x1="114.927" y1="155.776" x2="114.927" y2="206.855" gradientUnits="userSpaceOnUse">
<stop stop-color="#693B93" stop-opacity="0.53"/>
<stop offset="1" stop-color="#693B93"/>
</linearGradient>
<linearGradient id="paint10_linear_107_123" x1="918" y1="293.77" x2="918" y2="372.77" gradientUnits="userSpaceOnUse">
<stop stop-color="#2C1250"/>
<stop offset="1" stop-color="#693B93"/>
</linearGradient>
<linearGradient id="paint11_linear_107_123" x1="706.152" y1="324.77" x2="706.152" y2="409.412" gradientUnits="userSpaceOnUse">
<stop stop-color="#2C1250"/>
<stop offset="1" stop-color="#693B93"/>
</linearGradient>
<linearGradient id="paint12_linear_107_123" x1="846.979" y1="138.002" x2="846.979" y2="164.738" gradientUnits="userSpaceOnUse">
<stop stop-color="#2C1250"/>
<stop offset="1" stop-color="#693B93"/>
</linearGradient>
<linearGradient id="paint13_linear_107_123" x1="846.99" y1="124.592" x2="846.99" y2="151.289" gradientUnits="userSpaceOnUse">
<stop stop-color="#2C1250"/>
<stop offset="1" stop-color="#693B93"/>
</linearGradient>
<linearGradient id="paint14_linear_107_123" x1="807.351" y1="124.561" x2="807.351" y2="151.319" gradientUnits="userSpaceOnUse">
<stop stop-color="#2C1250"/>
<stop offset="1" stop-color="#693B93"/>
</linearGradient>
<linearGradient id="paint15_linear_107_123" x1="807.351" y1="138.027" x2="807.351" y2="164.712" gradientUnits="userSpaceOnUse">
<stop stop-color="#2C1250"/>
<stop offset="1" stop-color="#693B93"/>
</linearGradient>
<linearGradient id="paint16_linear_107_123" x1="64.2802" y1="277.77" x2="64.2802" y2="288.674" gradientUnits="userSpaceOnUse">
<stop stop-color="#2C1250"/>
<stop offset="1" stop-color="#693B93"/>
</linearGradient>
<linearGradient id="paint17_linear_107_123" x1="64.5948" y1="293.442" x2="64.5948" y2="355.458" gradientUnits="userSpaceOnUse">
<stop stop-color="#2C1250"/>
<stop offset="1" stop-color="#693B93"/>
</linearGradient>
</defs>
</svg>
